<svg xmlns="http://www.w3.org/2000/svg" width="1024" height="1024" viewBox="0 0 1024 1024">
  <defs>
    <linearGradient id="bg" x1="0%" y1="0%" x2="100%" y2="100%">
      <stop offset="0%" stop-color="#08111b" />
      <stop offset="55%" stop-color="#0d1725" />
      <stop offset="100%" stop-color="#111f31" />
    </linearGradient>
    <radialGradient id="glow-orange" cx="50%" cy="50%" r="50%">
      <stop offset="0%" stop-color="#fb923c" stop-opacity="0.95" />
      <stop offset="100%" stop-color="#fb923c" stop-opacity="0" />
    </radialGradient>
    <radialGradient id="glow-blue" cx="50%" cy="50%" r="50%">
      <stop offset="0%" stop-color="#38bdf8" stop-opacity="0.8" />
      <stop offset="100%" stop-color="#38bdf8" stop-opacity="0" />
    </radialGradient>
    <linearGradient id="core" x1="0%" y1="0%" x2="100%" y2="100%">
      <stop offset="0%" stop-color="#fb923c" />
      <stop offset="100%" stop-color="#38bdf8" />
    </linearGradient>
  </defs>

  <rect width="1024" height="1024" rx="228" fill="url(#bg)" />

  <g opacity="0.28">
    <path d="M0 188H1024" stroke="#94a3b8" stroke-width="2" />
    <path d="M0 356H1024" stroke="#94a3b8" stroke-width="2" />
    <path d="M0 524H1024" stroke="#94a3b8" stroke-width="2" />
    <path d="M0 692H1024" stroke="#94a3b8" stroke-width="2" />
    <path d="M0 860H1024" stroke="#94a3b8" stroke-width="2" />
    <path d="M188 0V1024" stroke="#94a3b8" stroke-width="2" />
    <path d="M356 0V1024" stroke="#94a3b8" stroke-width="2" />
    <path d="M524 0V1024" stroke="#94a3b8" stroke-width="2" />
    <path d="M692 0V1024" stroke="#94a3b8" stroke-width="2" />
    <path d="M860 0V1024" stroke="#94a3b8" stroke-width="2" />
  </g>

  <circle cx="512" cy="512" r="264" fill="url(#glow-orange)" opacity="0.34" />
  <circle cx="512" cy="512" r="324" fill="url(#glow-blue)" opacity="0.24" />

  <g fill="none" stroke-linecap="round">
    <circle cx="512" cy="512" r="78" stroke="#f8fafc" stroke-opacity="0.24" stroke-width="14" />
    <ellipse cx="512" cy="512" rx="282" ry="112" stroke="#f8fafc" stroke-opacity="0.2" stroke-width="16" />
    <ellipse cx="512" cy="512" rx="282" ry="112" transform="rotate(-32 512 512)" stroke="#fb923c" stroke-opacity="0.55" stroke-width="16" />
    <ellipse cx="512" cy="512" rx="282" ry="112" transform="rotate(34 512 512)" stroke="#38bdf8" stroke-opacity="0.46" stroke-width="16" />
  </g>

  <circle cx="512" cy="512" r="42" fill="url(#core)" />
  <circle cx="764" cy="448" r="26" fill="#fb923c" />
  <circle cx="326" cy="644" r="22" fill="#38bdf8" />
  <circle cx="560" cy="250" r="18" fill="#f8fafc" />
</svg>
